<svg width="64" height="64" viewBox="0 0 64 64" fill="none" xmlns="http://www.w3.org/2000/svg">
<rect x="0.5" y="0.5" width="63" height="63" rx="31.5" fill="white"/>
<rect x="0.5" y="0.5" width="63" height="63" rx="31.5" stroke="#6C7498"/>
<path fill-rule="evenodd" clip-rule="evenodd" d="M22.0335 31.2933C28.235 28.5914 32.3703 26.8101 34.4394 25.9495C40.3471 23.4923 41.5746 23.0655 42.3748 23.0514C42.5507 23.0483 42.9442 23.0919 43.1991 23.2987C43.4143 23.4733 43.4735 23.7092 43.5019 23.8748C43.5302 24.0403 43.5655 24.4175 43.5374 24.7122C43.2173 28.076 41.832 36.2389 41.1273 40.0063C40.8291 41.6005 40.2419 42.135 39.6735 42.1873C38.4381 42.301 37.5001 41.3709 36.3036 40.5866C34.4313 39.3593 33.3735 38.5953 31.5562 37.3976C29.4559 36.0136 30.8174 35.2529 32.0143 34.0097C32.3276 33.6843 37.7706 28.7335 37.876 28.2844C37.8891 28.2282 37.9014 28.0188 37.777 27.9082C37.6526 27.7977 37.469 27.8355 37.3365 27.8656C37.1487 27.9082 34.1577 29.8851 28.3635 33.7964C27.5145 34.3794 26.7455 34.6634 26.0565 34.6485C25.297 34.6321 23.8359 34.2191 22.7497 33.866C21.4175 33.433 20.3587 33.204 20.4509 32.4686C20.4989 32.0855 21.0265 31.6937 22.0335 31.2933Z" fill="#056CF2"/>
</svg>
