<svg width="64" height="64" viewBox="0 0 64 64" fill="none" xmlns="http://www.w3.org/2000/svg">
<rect x="0.5" y="0.5" width="63" height="63" rx="31.5" stroke="#6C7498"/>
<g clip-path="url(#clip0_2507_8360)">
<path d="M20 44L21.6963 37.8403C20.6476 36.0323 20.0974 33.9848 20.1032 31.8916C20.1032 25.3327 25.467 20 32.0516 20C35.2493 20 38.2521 21.2376 40.5043 23.4848C42.7622 25.7319 44.0057 28.7205 44 31.8973C44 38.4563 38.6361 43.789 32.0458 43.789H32.0401C30.0401 43.789 28.0745 43.2871 26.3266 42.3403L20 44ZM26.6304 40.1901L26.9914 40.4068C28.5158 41.308 30.2636 41.7814 32.0458 41.7871H32.0516C37.5243 41.7871 41.9828 37.3555 41.9828 31.903C41.9828 29.2624 40.9513 26.7814 39.0773 24.9106C37.2034 23.0399 34.7049 22.0133 32.0516 22.0133C26.5788 22.0076 22.1203 26.4392 22.1203 31.8916C22.1203 33.7567 22.6418 35.576 23.639 37.1502L23.8739 37.5266L22.8711 41.1711L26.6304 40.1901Z" fill="#056CF2"/>
<path d="M20.4219 43.5836L22.0608 37.635C21.0465 35.8954 20.5136 33.9163 20.5136 31.8973C20.5193 25.5665 25.6941 20.4163 32.0551 20.4163C35.1439 20.4163 38.0379 21.614 40.2156 23.7813C42.3932 25.9486 43.5909 28.8346 43.5909 31.903C43.5909 38.2338 38.4104 43.384 32.0551 43.384H32.0494C30.1181 43.384 28.2213 42.8992 26.5365 41.9867L20.4219 43.5836Z" fill="white"/>
<path d="M20 44L21.6963 37.8403C20.6476 36.0323 20.0974 33.9848 20.1032 31.8916C20.1032 25.3327 25.467 20 32.0516 20C35.2493 20 38.2521 21.2376 40.5043 23.4848C42.7622 25.7319 44.0057 28.7205 44 31.8973C44 38.4563 38.6361 43.789 32.0458 43.789H32.0401C30.0401 43.789 28.0745 43.2871 26.3266 42.3403L20 44ZM26.6304 40.1901L26.9914 40.4068C28.5158 41.308 30.2636 41.7814 32.0458 41.7871H32.0516C37.5243 41.7871 41.9828 37.3555 41.9828 31.903C41.9828 29.2624 40.9513 26.7814 39.0773 24.9106C37.2034 23.0399 34.7049 22.0133 32.0516 22.0133C26.5788 22.0076 22.1203 26.4392 22.1203 31.8916C22.1203 33.7567 22.6418 35.576 23.639 37.1502L23.8739 37.5266L22.8711 41.1711L26.6304 40.1901Z" fill="#056CF2"/>
<path fill-rule="evenodd" clip-rule="evenodd" d="M29.0675 26.9182C28.844 26.422 28.609 26.4106 28.397 26.4049C28.2251 26.3992 28.0245 26.3992 27.8239 26.3992C27.6233 26.3992 27.3024 26.4734 27.0274 26.77C26.7523 27.0665 25.9844 27.7852 25.9844 29.2509C25.9844 30.711 27.056 32.1255 27.205 32.3251C27.354 32.5247 29.2738 35.6217 32.3053 36.8137C34.8268 37.8061 35.3425 37.6065 35.8869 37.5551C36.4314 37.5038 37.652 36.8365 37.9041 36.1407C38.1506 35.4449 38.1506 34.8517 38.0761 34.7262C38.0016 34.6008 37.801 34.5266 37.503 34.3783C37.205 34.23 35.7379 33.5114 35.4629 33.4087C35.1878 33.3118 34.9872 33.2604 34.7924 33.557C34.5918 33.8536 34.0188 34.5209 33.8468 34.7205C33.6749 34.9201 33.4973 34.943 33.1993 34.7947C32.9013 34.6464 31.9385 34.3327 30.7981 33.3175C29.9099 32.5304 29.3082 31.5551 29.1362 31.2585C28.9643 30.962 29.119 30.8023 29.268 30.654C29.3998 30.5228 29.566 30.3061 29.715 30.135C29.864 29.9639 29.9156 29.8384 30.013 29.6388C30.1104 29.4392 30.0646 29.2681 29.9901 29.1198C29.9156 28.9772 29.3311 27.5057 29.0675 26.9182Z" fill="#056CF2"/>
</g>
<defs>
<clipPath id="clip0_2507_8360">
<rect width="24" height="24" fill="white" transform="translate(20 20)"/>
</clipPath>
</defs>
</svg>
