<svg width="64" height="64" viewBox="0 0 64 64" fill="none" xmlns="http://www.w3.org/2000/svg">
<path d="M55 25C55 37.7025 32 62 32 62C32 61.5 9 37.7025 9 25C9 12.2975 19.2975 2 32 2C44.7025 2 55 12.2975 55 25Z" fill="#424463"/>
<circle cx="32" cy="25" r="16" fill="white"/>
<path d="M28.8829 26.5553L24.0862 32.5826C23.9901 32.7006 23.9726 32.8608 24.0425 32.9957L25.423 35.7775C25.554 36.0388 25.9297 36.081 26.1132 35.845L32.1505 28.2497C32.2466 28.1317 32.2641 27.9715 32.1942 27.8366L31.801 27.0527L35.7939 27.5669C36.3181 27.609 36.6851 27.55 37.1132 27.3477C38.3364 26.7829 38.8431 25.3667 38.2577 24.195C37.9082 23.4868 37.2617 23.0906 36.5103 22.9473L40.9138 17.4174C41.0099 17.2994 41.0274 17.1392 40.9575 17.0043L39.577 14.2225C39.446 13.9612 39.0703 13.919 38.8868 14.155L32.8495 21.7503C32.7534 21.8683 32.7359 22.0285 32.8058 22.1634L33.2339 23.0232L29.643 23.2255C29.4245 23.2424 29.2061 23.293 28.9964 23.3941C28.0703 23.824 27.6859 24.8946 28.1315 25.7798C28.2975 26.1254 28.5683 26.3867 28.8829 26.5553Z" fill="#056CF2"/>
</svg>
